<svg xmlns="http://www.w3.org/2000/svg" xmlns:xlink="http://www.w3.org/1999/xlink" viewBox="0 0 357.7 159.61"><defs><style>.cls-1{fill:url(#linear-gradient);}.cls-2{fill:#030316;}.cls-3{fill:#ccc073;}.cls-4{stroke:#030316;}.cls-4,.cls-6,.cls-7{stroke-miterlimit:10;}.cls-5{fill:#fff;}.cls-6,.cls-7{fill:none;stroke-width:3px;}.cls-6{stroke:#fff;}.cls-7{stroke:#000;}</style><linearGradient id="linear-gradient" x1="93.52" y1="10.61" x2="103.05" y2="157.75" gradientUnits="userSpaceOnUse"><stop offset="0.23" stop-color="#050980"/><stop offset="0.78" stop-color="#030316"/></linearGradient></defs><g id="Logo"><path id="Heart" class="cls-1" d="M95.56,38.61C47.16-44.3-39.8,54.78,23.74,104.34c41.52,25,58,28.42,78.75,57.2,13-17.89,25.22-35.1,40.45-43C254.93,60,146.14-57.9,95.56,38.61Z" transform="translate(-1.35 -1.93)"/><g id="Text"><g id="mmanuel"><path class="cls-2" d="M119.59,81.91h3.55v4.77A13.71,13.71,0,0,1,127,82.82a10.8,10.8,0,0,1,5.66-1.62,9.32,9.32,0,0,1,3.81.79,8.12,8.12,0,0,1,2.94,2.09,11.3,11.3,0,0,1,2,3.74,13.1,13.1,0,0,1,4.43-4.93,10.44,10.44,0,0,1,5.72-1.69,8.89,8.89,0,0,1,5,1.45,8.51,8.51,0,0,1,3.25,4,21.43,21.43,0,0,1,1.07,7.76V109.5h-3.63V94.44a19.75,19.75,0,0,0-.63-6.1,5.5,5.5,0,0,0-2.16-2.68,6.51,6.51,0,0,0-3.65-1,8,8,0,0,0-4.72,1.52,8.83,8.83,0,0,0-3.12,4.06c-.66,1.69-1,4.51-1,8.47v10.8h-3.55V95.38a24,24,0,0,0-.63-6.79,5.65,5.65,0,0,0-2.16-2.86,6.29,6.29,0,0,0-3.68-1.08,7.92,7.92,0,0,0-4.6,1.48,8.73,8.73,0,0,0-3.17,4,21.36,21.36,0,0,0-1,7.68V109.5h-3.55Z" transform="translate(-1.35 -1.93)"/><path class="cls-2" d="M168.56,81.91h3.55v4.77a13.84,13.84,0,0,1,3.81-3.86,10.8,10.8,0,0,1,5.66-1.62,9.32,9.32,0,0,1,3.81.79,8.12,8.12,0,0,1,2.94,2.09,10.94,10.94,0,0,1,2,3.74,13.1,13.1,0,0,1,4.43-4.93,10.44,10.44,0,0,1,5.72-1.69,8.93,8.93,0,0,1,5,1.45,8.63,8.63,0,0,1,3.25,4,21.69,21.69,0,0,1,1.06,7.76V109.5h-3.63V94.44a19.75,19.75,0,0,0-.63-6.1,5.5,5.5,0,0,0-2.16-2.68,6.51,6.51,0,0,0-3.65-1A8,8,0,0,0,195,86.17a8.83,8.83,0,0,0-3.12,4.06q-1,2.53-1,8.47v10.8h-3.55V95.38a24.47,24.47,0,0,0-.62-6.79,5.72,5.72,0,0,0-2.17-2.86,6.27,6.27,0,0,0-3.68-1.08,7.92,7.92,0,0,0-4.6,1.48,8.73,8.73,0,0,0-3.17,4,21.36,21.36,0,0,0-1,7.68V109.5h-3.55Z" transform="translate(-1.35 -1.93)"/><path class="cls-2" d="M245.05,81.91V109.5h-3.5v-4.74a15.2,15.2,0,0,1-5,4.08A14,14,0,0,1,220.46,106a14.24,14.24,0,0,1-4.14-10.33,14,14,0,0,1,4.18-10.19,13.63,13.63,0,0,1,10.07-4.24,13,13,0,0,1,6.15,1.45A14,14,0,0,1,241.55,87V81.91Zm-14.19,2.71a10.72,10.72,0,0,0-9.46,5.55,11.17,11.17,0,0,0-1.48,5.57,11.3,11.3,0,0,0,1.49,5.58,11,11,0,0,0,4,4.14,10.55,10.55,0,0,0,5.4,1.48,11.05,11.05,0,0,0,5.52-1.47,10.32,10.32,0,0,0,4-4,11.3,11.3,0,0,0,1.4-5.65,11,11,0,0,0-3.15-8A10.46,10.46,0,0,0,230.86,84.62Z" transform="translate(-1.35 -1.93)"/><path class="cls-2" d="M253.29,81.91h3.55v4.94a14.93,14.93,0,0,1,4.72-4.24,11.56,11.56,0,0,1,5.63-1.41,9.78,9.78,0,0,1,5.49,1.57A9.35,9.35,0,0,1,276.22,87c.76,1.77,1.14,4.54,1.14,8.29v14.2h-3.55V96.34a31.85,31.85,0,0,0-.4-6.37,7.05,7.05,0,0,0-2.36-4.12,7.17,7.17,0,0,0-4.57-1.38,8.75,8.75,0,0,0-5.77,2.13,10,10,0,0,0-3.36,5.28,36.45,36.45,0,0,0-.51,7.5V109.5h-3.55Z" transform="translate(-1.35 -1.93)"/><path class="cls-2" d="M284.77,81.91h3.55V94.79a27.31,27.31,0,0,0,.51,6.49,7.2,7.2,0,0,0,2.9,4,8.84,8.84,0,0,0,5.12,1.47,8.67,8.67,0,0,0,5-1.43,7.37,7.37,0,0,0,2.86-3.77,26.88,26.88,0,0,0,.53-6.77V81.91h3.63V95.45q0,5.7-1.33,8.6a10.23,10.23,0,0,1-4,4.52,12.66,12.66,0,0,1-6.71,1.64,12.81,12.81,0,0,1-6.73-1.64,10.1,10.1,0,0,1-4-4.56q-1.34-2.92-1.33-8.81Z" transform="translate(-1.35 -1.93)"/><path class="cls-2" d="M340.28,100.35l3,1.57a16.24,16.24,0,0,1-3.4,4.66,13.19,13.19,0,0,1-4.34,2.7,15,15,0,0,1-5.45.93q-6.75,0-10.56-4.43a14.91,14.91,0,0,1-3.81-10,14.75,14.75,0,0,1,3.22-9.36,13.19,13.19,0,0,1,10.94-5.22,13.6,13.6,0,0,1,11.27,5.35A15,15,0,0,1,344.19,96H319.36a11.22,11.22,0,0,0,3.07,7.88,9.81,9.81,0,0,0,7.34,3.08,12,12,0,0,0,4.1-.73,10.77,10.77,0,0,0,3.39-1.95A16.52,16.52,0,0,0,340.28,100.35Zm0-7.43a11.6,11.6,0,0,0-2.07-4.54,9.62,9.62,0,0,0-3.59-2.74,10.92,10.92,0,0,0-4.7-1,10.14,10.14,0,0,0-7,2.61,11.76,11.76,0,0,0-3.22,5.71Z" transform="translate(-1.35 -1.93)"/><path class="cls-2" d="M350.53,71.26h3.55V109.5h-3.55Z" transform="translate(-1.35 -1.93)"/><path class="cls-3" d="M119.59,80.1h3.55v4.76A13.79,13.79,0,0,1,127,81a10.8,10.8,0,0,1,5.66-1.62,9.48,9.48,0,0,1,3.81.78,8.14,8.14,0,0,1,2.94,2.1,11.2,11.2,0,0,1,2,3.74,13.14,13.14,0,0,1,4.43-4.94,10.51,10.51,0,0,1,5.72-1.68,9,9,0,0,1,5,1.44,8.61,8.61,0,0,1,3.25,4,21.5,21.5,0,0,1,1.07,7.76v15.07h-3.63V92.62a19.68,19.68,0,0,0-.63-6.09,5.5,5.5,0,0,0-2.16-2.68,6.43,6.43,0,0,0-3.65-1,7.93,7.93,0,0,0-4.72,1.52,8.76,8.76,0,0,0-3.12,4c-.66,1.7-1,4.52-1,8.47v10.81h-3.55V93.56a23.88,23.88,0,0,0-.63-6.78,5.67,5.67,0,0,0-2.16-2.87,6.36,6.36,0,0,0-3.68-1.07,7.92,7.92,0,0,0-4.6,1.48,8.76,8.76,0,0,0-3.17,4,21.45,21.45,0,0,0-1,7.69v11.69h-3.55Z" transform="translate(-1.35 -1.93)"/><path class="cls-3" d="M168.56,80.1h3.55v4.76A13.92,13.92,0,0,1,175.92,81a10.8,10.8,0,0,1,5.66-1.62,9.48,9.48,0,0,1,3.81.78,8.14,8.14,0,0,1,2.94,2.1,10.85,10.85,0,0,1,2,3.74,13.14,13.14,0,0,1,4.43-4.94,10.51,10.51,0,0,1,5.72-1.68,9,9,0,0,1,5,1.44,8.73,8.73,0,0,1,3.25,4,21.77,21.77,0,0,1,1.06,7.76v15.07h-3.63V92.62a19.68,19.68,0,0,0-.63-6.09,5.5,5.5,0,0,0-2.16-2.68,6.43,6.43,0,0,0-3.65-1A7.93,7.93,0,0,0,195,84.36a8.76,8.76,0,0,0-3.12,4q-1,2.55-1,8.47v10.81h-3.55V93.56a24.38,24.38,0,0,0-.62-6.78,5.75,5.75,0,0,0-2.17-2.87,6.33,6.33,0,0,0-3.68-1.07,7.92,7.92,0,0,0-4.6,1.48,8.76,8.76,0,0,0-3.17,4,21.45,21.45,0,0,0-1,7.69v11.69h-3.55Z" transform="translate(-1.35 -1.93)"/><path class="cls-3" d="M245.05,80.1v27.59h-3.5v-4.75a15.36,15.36,0,0,1-5,4.09,14,14,0,0,1-16.08-2.88,14.25,14.25,0,0,1-4.14-10.33,14,14,0,0,1,4.18-10.2,13.66,13.66,0,0,1,10.07-4.23,13.09,13.09,0,0,1,6.15,1.44,14.11,14.11,0,0,1,4.83,4.34V80.1Zm-14.19,2.71a10.72,10.72,0,0,0-9.46,5.55,11.14,11.14,0,0,0-1.48,5.57,11.26,11.26,0,0,0,1.49,5.57,10.81,10.81,0,0,0,4,4.14,10.46,10.46,0,0,0,5.4,1.49,11.05,11.05,0,0,0,5.52-1.47,10.32,10.32,0,0,0,4-4,11.3,11.3,0,0,0,1.4-5.65,11,11,0,0,0-3.15-8A10.42,10.42,0,0,0,230.86,82.81Z" transform="translate(-1.35 -1.93)"/><path class="cls-3" d="M253.29,80.1h3.55V85a15,15,0,0,1,4.72-4.25,11.66,11.66,0,0,1,5.63-1.4A9.78,9.78,0,0,1,272.68,81a9.37,9.37,0,0,1,3.54,4.23c.76,1.78,1.14,4.54,1.14,8.3v14.2h-3.55V94.53a31.85,31.85,0,0,0-.4-6.37A7,7,0,0,0,271.05,84a7.17,7.17,0,0,0-4.57-1.38,8.75,8.75,0,0,0-5.77,2.13,10,10,0,0,0-3.36,5.27,36.5,36.5,0,0,0-.51,7.51v10.12h-3.55Z" transform="translate(-1.35 -1.93)"/><path class="cls-3" d="M284.77,80.1h3.55V93a27.37,27.37,0,0,0,.51,6.49,7.2,7.2,0,0,0,2.9,4,8.84,8.84,0,0,0,5.12,1.47,8.67,8.67,0,0,0,5-1.43,7.37,7.37,0,0,0,2.86-3.77,26.93,26.93,0,0,0,.53-6.77V80.1h3.63V93.64c0,3.8-.44,6.67-1.33,8.59a10.2,10.2,0,0,1-4,4.53,12.66,12.66,0,0,1-6.71,1.64,12.81,12.81,0,0,1-6.73-1.64,10.1,10.1,0,0,1-4-4.56c-.89-2-1.33-4.89-1.33-8.82Z" transform="translate(-1.35 -1.93)"/><path class="cls-3" d="M340.28,98.53l3,1.57a16.15,16.15,0,0,1-3.4,4.67,13.52,13.52,0,0,1-4.34,2.7,15,15,0,0,1-5.45.93q-6.75,0-10.56-4.43a14.91,14.91,0,0,1-3.81-10,14.75,14.75,0,0,1,3.22-9.36,13.19,13.19,0,0,1,10.94-5.22,13.6,13.6,0,0,1,11.27,5.35,15,15,0,0,1,3.05,9.43H319.36a11.23,11.23,0,0,0,3.07,7.88,9.81,9.81,0,0,0,7.34,3.08,11.75,11.75,0,0,0,4.1-.74,10.75,10.75,0,0,0,3.39-1.94A16.61,16.61,0,0,0,340.28,98.53Zm0-7.43a11.73,11.73,0,0,0-2.07-4.54,9.71,9.71,0,0,0-3.59-2.73,10.92,10.92,0,0,0-4.7-1,10.14,10.14,0,0,0-7,2.61,11.72,11.72,0,0,0-3.22,5.7Z" transform="translate(-1.35 -1.93)"/><path class="cls-3" d="M350.53,69.45h3.55v38.24h-3.55Z" transform="translate(-1.35 -1.93)"/></g><path class="cls-4" d="M171.26,111.6l7.65,16.4h-1.77l-2.58-5.4H167.5l-2.56,5.4h-1.83l7.75-16.4Zm-.2,3.49L168.25,121h5.6Z" transform="translate(-1.35 -1.93)"/><path class="cls-4" d="M193.46,111.19V128h-1.53v-2.08a6.75,6.75,0,0,1-2.21,1.79,6.16,6.16,0,0,1-7.06-1.26,6.26,6.26,0,0,1-1.83-4.55,6.18,6.18,0,0,1,1.84-4.48,6,6,0,0,1,4.43-1.86,5.75,5.75,0,0,1,2.7.63,6.19,6.19,0,0,1,2.13,1.91v-6.91Zm-6.23,5.87a4.8,4.8,0,0,0-2.41.64,4.73,4.73,0,0,0-1.75,1.8,4.94,4.94,0,0,0,0,4.9,4.77,4.77,0,0,0,1.77,1.82,4.57,4.57,0,0,0,2.38.66,4.85,4.85,0,0,0,2.42-.65,4.45,4.45,0,0,0,1.77-1.75A5,5,0,0,0,192,122a4.83,4.83,0,0,0-1.39-3.52A4.6,4.6,0,0,0,187.23,117.06Z" transform="translate(-1.35 -1.93)"/><path class="cls-4" d="M197,115.87h1.56v5.66a12.09,12.09,0,0,0,.22,2.86,3.22,3.22,0,0,0,1.28,1.76,3.9,3.9,0,0,0,2.25.65,3.82,3.82,0,0,0,2.22-.63,3.23,3.23,0,0,0,1.25-1.66,11.45,11.45,0,0,0,.24-3v-5.66h1.59v5.95a9.39,9.39,0,0,1-.58,3.78,4.48,4.48,0,0,1-1.76,2,6.42,6.42,0,0,1-5.91,0,4.38,4.38,0,0,1-1.78-2,9.84,9.84,0,0,1-.58-3.88Z" transform="translate(-1.35 -1.93)"/><path class="cls-4" d="M211,111.19h1.56V128H211Z" transform="translate(-1.35 -1.93)"/><path class="cls-4" d="M217.29,111.37h1.56v4.5h2.48v1.35h-2.48V128h-1.56V117.22h-2.13v-1.35h2.13Z" transform="translate(-1.35 -1.93)"/><path class="cls-4" d="M230.57,128V111.6H234a17.51,17.51,0,0,1,5.34.59,7.2,7.2,0,0,1,3.73,2.9,8.86,8.86,0,0,1,1.34,4.92,8.58,8.58,0,0,1-1.07,4.33,6.81,6.81,0,0,1-2.76,2.77,10.47,10.47,0,0,1-4.77.89Zm1.57-1.55H234a17.84,17.84,0,0,0,4.72-.42,5.44,5.44,0,0,0,2.91-2.17,6.7,6.7,0,0,0,1.06-3.82,7,7,0,0,0-1.15-4.06,5.82,5.82,0,0,0-3.2-2.31,19.54,19.54,0,0,0-5.07-.46h-1.16Z" transform="translate(-1.35 -1.93)"/><path class="cls-4" d="M259.55,115.87V128H258v-2.08a6.82,6.82,0,0,1-2.2,1.79,6,6,0,0,1-2.67.6,5.92,5.92,0,0,1-4.4-1.86,6.26,6.26,0,0,1-1.83-4.55,6.18,6.18,0,0,1,1.84-4.48,6,6,0,0,1,4.43-1.86,5.72,5.72,0,0,1,2.7.63A6.19,6.19,0,0,1,258,118.1v-2.23Zm-6.24,1.19a4.8,4.8,0,0,0-2.41.64,4.73,4.73,0,0,0-1.75,1.8,4.86,4.86,0,0,0-.65,2.45,5,5,0,0,0,.65,2.45,4.77,4.77,0,0,0,1.77,1.82,4.57,4.57,0,0,0,2.38.66,4.92,4.92,0,0,0,2.43-.65,4.49,4.49,0,0,0,1.76-1.75,5,5,0,0,0,.62-2.48,4.79,4.79,0,0,0-1.39-3.52A4.6,4.6,0,0,0,253.31,117.06Z" transform="translate(-1.35 -1.93)"/><path class="cls-4" d="M261.91,115.87h1.65l4.17,9.34,4-9.34h1.66l-7.23,16.57h-1.65l2.33-5.36Z" transform="translate(-1.35 -1.93)"/><path class="cls-4" d="M297.63,114.64l-1.29,1a7.06,7.06,0,0,0-2.57-2.12,7.52,7.52,0,0,0-3.3-.71,7.25,7.25,0,0,0-3.63.94,6.7,6.7,0,0,0-2.59,2.53,6.93,6.93,0,0,0-.92,3.57,6.72,6.72,0,0,0,2.05,5,7.18,7.18,0,0,0,5.19,2,7.3,7.3,0,0,0,5.77-2.69l1.29,1a8.32,8.32,0,0,1-3.06,2.41,9.58,9.58,0,0,1-4.1.85,8.52,8.52,0,0,1-6.79-2.86,8.63,8.63,0,0,1-2.08-5.84,8.14,8.14,0,0,1,2.52-6.06,8.73,8.73,0,0,1,6.33-2.46,9.23,9.23,0,0,1,4.15.91A8,8,0,0,1,297.63,114.64Z" transform="translate(-1.35 -1.93)"/><path class="cls-4" d="M311,124l1.31.69a7.19,7.19,0,0,1-1.49,2,6.06,6.06,0,0,1-1.91,1.19,6.71,6.71,0,0,1-2.4.4,5.77,5.77,0,0,1-4.64-1.94,6.57,6.57,0,0,1-1.68-4.4,6.49,6.49,0,0,1,1.42-4.11,5.78,5.78,0,0,1,4.81-2.3,6,6,0,0,1,5,2.35,6.53,6.53,0,0,1,1.34,4.15H301.84a4.93,4.93,0,0,0,1.35,3.46,4.29,4.29,0,0,0,3.23,1.36,5.12,5.12,0,0,0,1.8-.33,4.8,4.8,0,0,0,1.49-.85A7.5,7.5,0,0,0,311,124Zm0-3.27a5.38,5.38,0,0,0-.91-2,4.39,4.39,0,0,0-1.58-1.2,5,5,0,0,0-2.07-.46,4.48,4.48,0,0,0-3.07,1.15,5.27,5.27,0,0,0-1.42,2.51Z" transform="translate(-1.35 -1.93)"/><path class="cls-4" d="M315.82,115.87h1.56v2.18a6.47,6.47,0,0,1,2.08-1.87,5.12,5.12,0,0,1,2.47-.62,4.31,4.31,0,0,1,2.42.69,4.09,4.09,0,0,1,1.55,1.86,9.76,9.76,0,0,1,.5,3.65V128h-1.56v-5.78a14,14,0,0,0-.17-2.8,3.1,3.1,0,0,0-1-1.82,3.16,3.16,0,0,0-2-.6,3.84,3.84,0,0,0-2.53.93,4.42,4.42,0,0,0-1.48,2.32,15.86,15.86,0,0,0-.23,3.3V128h-1.56Z" transform="translate(-1.35 -1.93)"/><path class="cls-4" d="M331.27,111.37h1.56v4.5h2.48v1.35h-2.48V128h-1.56V117.22h-2.13v-1.35h2.13Z" transform="translate(-1.35 -1.93)"/><path class="cls-4" d="M348,124l1.31.69a7.19,7.19,0,0,1-1.49,2,6,6,0,0,1-1.91,1.19,6.71,6.71,0,0,1-2.4.4,5.78,5.78,0,0,1-4.64-1.94,6.56,6.56,0,0,1-1.67-4.4,6.48,6.48,0,0,1,1.41-4.11,5.78,5.78,0,0,1,4.81-2.3,6,6,0,0,1,5,2.35,6.65,6.65,0,0,1,1.34,4.15H338.82a4.93,4.93,0,0,0,1.35,3.46,4.29,4.29,0,0,0,3.23,1.36,5,5,0,0,0,1.8-.33,4.8,4.8,0,0,0,1.49-.85A7.5,7.5,0,0,0,348,124Zm0-3.27a5.23,5.23,0,0,0-.91-2,4.39,4.39,0,0,0-1.58-1.2,4.92,4.92,0,0,0-2.07-.46,4.48,4.48,0,0,0-3.07,1.15,5.27,5.27,0,0,0-1.41,2.51Z" transform="translate(-1.35 -1.93)"/><path class="cls-4" d="M352.21,115.87h1.6v1.77a5.49,5.49,0,0,1,1.5-1.56,3,3,0,0,1,1.65-.52,2.89,2.89,0,0,1,1.39.41l-.82,1.32a2.15,2.15,0,0,0-.82-.21,2.27,2.27,0,0,0-1.51.64,4,4,0,0,0-1.1,2,18.64,18.64,0,0,0-.29,4.19V128h-1.6Z" transform="translate(-1.35 -1.93)"/></g><g id="Decorative_Elements" data-name="Decorative Elements"><path class="cls-5" d="M33.16,63.78c.29-8.33-12.92-6.78-13.21,0C19.41,72.34,33.29,72.46,33.16,63.78Z" transform="translate(-1.35 -1.93)"/><path class="cls-5" d="M21.65,51.94c6.11.3,10.86,4.28,11.62,10.55l-6-4.19c.75-7.79-17.81-7.52-17.75,8C10,76.45,18.19,85.11,32.56,85.68,59.68,87,77.19,45.5,105.13,42l-.43-1.16C73.41,46.25,62.36,86.29,32.44,87.9c-1.23,0-23.11-1.35-24.39-21.58C7.84,62.34,11.55,52.05,21.65,51.94Z" transform="translate(-1.35 -1.93)"/><path class="cls-5" d="M65.32,44.15c.08,5.69-8.86,5.69-8.77,0C56.47,38.46,65.4,38.46,65.32,44.15Z" transform="translate(-1.35 -1.93)"/><path class="cls-5" d="M61.08,39.77l4.24,4.06C64,32,48.92,32.44,47.1,43.5c.64,8.11,5.82,11.29,13.59,11.65,8.78,1.35,25.9-9.8,44.09-14.34C95.64,37.92,51,68,48.81,43.68,49,35.43,61,33.76,61.08,39.77Z" transform="translate(-1.35 -1.93)"/><path class="cls-5" d="M132.91,22.55c.78,15.9,23.7,23.43,23.73,2.75C146-19,93.08,33.28,131.41,60.46c-3.62.82-12.25-2.63-12.25-2.63-36.58,14.07-29.52,74.09,2.22,80.38l-5.76,6.47c-60.33-6.91-57.83-82.32-5.34-93.25-18.26-22.23,5.3-49.6,26.95-47,7.08,1.28,11.25,2.08,16.87,8.1,8,9.52,2.93,28-9.24,28.06C131.83,40.18,129.32,28.86,132.91,22.55Z" transform="translate(-1.35 -1.93)"/><path class="cls-6" d="M118,40.45c33.17,7.65,50.88,29.37,47.06,62.66" transform="translate(-1.35 -1.93)"/><path class="cls-7" d="M113.94,145.28c26.41-2.33,48.37-19.67,51.14-41.93" transform="translate(-1.35 -1.93)"/></g></g></svg>