<?xml version="1.0" encoding="utf-8"?>
<!-- Generator: Adobe Illustrator 24.2.1, SVG Export Plug-In . SVG Version: 6.00 Build 0)  -->
<svg version="1.1" id="Layer_1" xmlns="http://www.w3.org/2000/svg" xmlns:xlink="http://www.w3.org/1999/xlink" x="0px" y="0px"
	 viewBox="0 0 38 54" style="enable-background:new 0 0 38 54;" xml:space="preserve">
<style type="text/css">
	.st0{fill:#FFFFFB;}
	.st1{fill:#444CA0;}
	.st2{enable-background:new    ;}
</style>
<g id="Option_-_Menu" transform="translate(-36 -831)">
	<g id="Menu_-_Icon" transform="translate(0 -5)">
		<g id="Line_-_Bottom">
			<path class="st0" d="M40.2,873c-1.9,0-3.5-1.6-3.5-3.5v-1c0-2,1.5-3.5,3.5-3.5h29.6c1.9,0,3.5,1.6,3.5,3.5v1
				c0,1.9-1.6,3.5-3.5,3.5H40.2z"/>
			<path class="st1" d="M69.8,865.5c1.6,0,3,1.3,3,3v1c0,1.6-1.3,3-3,3H40.2c-1.6,0-3-1.3-3-3v-1c0-1.7,1.3-3,3-3H69.8 M69.8,864.5
				H40.2c-2.2,0-4,1.8-4,4v1c0,2.2,1.8,4,4,4h29.6c2.2,0,4-1.8,4-4v-1C73.8,866.3,72,864.5,69.8,864.5L69.8,864.5z"/>
		</g>
		<g id="Line_-_Middle">
			<path class="st0" d="M40.2,859.2c-1.9,0-3.5-1.6-3.5-3.5v-1c0-2,1.5-3.5,3.5-3.5h29.6c1.9,0,3.5,1.6,3.5,3.5v1
				c0,1.9-1.6,3.5-3.5,3.5H40.2z"/>
			<path class="st1" d="M69.8,851.8c1.6,0,3,1.3,3,3v1c0,1.6-1.3,3-3,3H40.2c-1.6,0-3-1.3-3-3v-1c0-1.7,1.3-3,3-3H69.8 M69.8,850.8
				H40.2c-2.2,0-4,1.8-4,4v1c0,2.2,1.8,4,4,4h29.6c2.2,0,4-1.8,4-4v-1C73.8,852.5,72,850.8,69.8,850.8L69.8,850.8z"/>
		</g>
		<g id="Line_-_Top">
			<path class="st0" d="M40.2,844.4c-1.9,0-3.5-1.6-3.5-3.5v-1c0-2,1.5-3.5,3.5-3.5h29.6c1.9,0,3.5,1.6,3.5,3.5v1
				c0,1.9-1.6,3.5-3.5,3.5H40.2z"/>
			<path class="st1" d="M69.8,836.9c1.6,0,3,1.3,3,3v1c0,1.6-1.3,3-3,3H40.2c-1.6,0-3-1.3-3-3v-1c0-1.7,1.3-3,3-3H69.8 M69.8,835.9
				H40.2c-2.2,0-4,1.8-4,4v1c0,2.2,1.8,4,4,4h29.6c2.2,0,4-1.8,4-4v-1C73.8,837.7,72,835.9,69.8,835.9L69.8,835.9z"/>
		</g>
	</g>
	<g class="st2">
		<path class="st1" d="M38,885.2l1.4-9.9h0.2l4,8.1l4-8.1h0.2l1.4,9.9h-1l-1-7.1l-3.5,7.1h-0.3l-3.5-7.1l-1,7.1H38z"/>
		<path class="st1" d="M56.5,882.8l0.8,0.4c-0.3,0.5-0.6,0.9-0.9,1.2c-0.3,0.3-0.7,0.6-1.2,0.7c-0.4,0.2-0.9,0.2-1.5,0.2
			c-1.2,0-2.1-0.4-2.8-1.2c-0.7-0.8-1-1.7-1-2.7c0-0.9,0.3-1.8,0.9-2.5c0.7-0.9,1.7-1.4,2.9-1.4c1.3,0,2.2,0.5,3,1.4
			c0.5,0.7,0.8,1.5,0.8,2.5h-6.6c0,0.9,0.3,1.6,0.8,2.1s1.2,0.8,2,0.8c0.4,0,0.7-0.1,1.1-0.2c0.4-0.1,0.7-0.3,0.9-0.5
			C55.9,883.5,56.2,883.3,56.5,882.8z M56.5,880.8c-0.1-0.5-0.3-0.9-0.6-1.2c-0.2-0.3-0.6-0.5-1-0.7c-0.4-0.2-0.8-0.3-1.2-0.3
			c-0.7,0-1.3,0.2-1.9,0.7c-0.4,0.3-0.7,0.8-0.9,1.5H56.5z"/>
		<path class="st1" d="M58.7,877.8h0.9v1.3c0.4-0.5,0.8-0.9,1.3-1.1c0.5-0.3,1-0.4,1.5-0.4s1,0.1,1.5,0.4c0.4,0.3,0.7,0.7,0.9,1.1
			c0.2,0.5,0.3,1.2,0.3,2.2v3.8h-0.9v-3.5c0-0.8,0-1.4-0.1-1.7c-0.1-0.5-0.3-0.9-0.6-1.1s-0.7-0.4-1.2-0.4c-0.6,0-1.1,0.2-1.5,0.6
			c-0.5,0.4-0.7,0.8-0.9,1.4c-0.1,0.4-0.1,1-0.1,2v2.7h-0.9v-7.3H58.7z"/>
		<path class="st1" d="M66.4,877.8h0.9v3.4c0,0.8,0,1.4,0.1,1.7c0.1,0.4,0.4,0.8,0.8,1.1c0.4,0.3,0.8,0.4,1.4,0.4
			c0.5,0,1-0.1,1.3-0.4s0.6-0.6,0.8-1c0.1-0.3,0.1-0.9,0.1-1.8v-3.4h1v3.6c0,1-0.1,1.8-0.4,2.3c-0.2,0.5-0.6,0.9-1.1,1.2
			c-0.5,0.3-1.1,0.4-1.8,0.4s-1.3-0.1-1.8-0.4c-0.5-0.3-0.8-0.7-1.1-1.2c-0.2-0.5-0.4-1.3-0.4-2.3v-3.6H66.4z"/>
	</g>
</g>
</svg>
