<?xml version="1.0" encoding="utf-8"?>
<!-- Generator: Adobe Illustrator 24.2.1, SVG Export Plug-In . SVG Version: 6.00 Build 0)  -->
<svg version="1.1" id="Layer_1" xmlns="http://www.w3.org/2000/svg" xmlns:xlink="http://www.w3.org/1999/xlink" x="0px" y="0px"
	 viewBox="0 0 36 35.5" style="enable-background:new 0 0 36 35.5;" xml:space="preserve">
<style type="text/css">
	.st0{fill:#FFFFFB;}
	.st1{enable-background:new    ;}
</style>
<g id="Option_-_Menu" transform="translate(-36 -831)">
	<g id="Menu_-_Icon" transform="translate(0 -5)">
		<path id="Line_-_Bottom" class="st0" d="M39,864.6h29.6c1.6,0,3,1.3,3,3v1c0,1.6-1.3,3-3,3H39c-1.6,0-3-1.3-3-3v-1
			C36,865.9,37.3,864.6,39,864.6z"/>
		<path id="Line_-_Middle" class="st0" d="M39,850.8h29.6c1.6,0,3,1.3,3,3v1c0,1.6-1.3,3-3,3H39c-1.6,0-3-1.3-3-3v-1
			C36,852.1,37.3,850.8,39,850.8z"/>
		<path id="Line_-_Top" class="st0" d="M39,836h29.6c1.6,0,3,1.3,3,3v1c0,1.6-1.3,3-3,3H39c-1.6,0-3-1.3-3-3v-1
			C36,837.3,37.3,836,39,836z"/>
	</g>
	<g class="st1">
		<path class="st0" d="M36.8,884.2l1.4-9.9h0.2l4,8.1l4-8.1h0.2l1.4,9.9h-1l-1-7.1l-3.5,7.1h-0.3l-3.5-7.1l-1,7.1H36.8z"/>
		<path class="st0" d="M55.3,881.8l0.8,0.4c-0.3,0.5-0.6,0.9-0.9,1.2c-0.3,0.3-0.7,0.6-1.2,0.7c-0.4,0.2-0.9,0.2-1.5,0.2
			c-1.2,0-2.1-0.4-2.8-1.2c-0.7-0.8-1-1.7-1-2.7c0-0.9,0.3-1.8,0.9-2.5c0.7-0.9,1.7-1.4,2.9-1.4c1.3,0,2.2,0.5,3,1.4
			c0.5,0.7,0.8,1.5,0.8,2.5h-6.6c0,0.9,0.3,1.6,0.8,2.1c0.5,0.5,1.2,0.8,2,0.8c0.4,0,0.7-0.1,1.1-0.2c0.4-0.1,0.7-0.3,0.9-0.5
			C54.7,882.6,55,882.3,55.3,881.8z M55.3,879.8c-0.1-0.5-0.3-0.9-0.6-1.2c-0.2-0.3-0.6-0.5-1-0.7c-0.4-0.2-0.8-0.3-1.2-0.3
			c-0.7,0-1.3,0.2-1.9,0.7c-0.4,0.3-0.7,0.8-0.9,1.5H55.3z"/>
		<path class="st0" d="M57.5,876.9h0.9v1.3c0.4-0.5,0.8-0.9,1.3-1.1c0.5-0.3,1-0.4,1.5-0.4c0.5,0,1,0.1,1.5,0.4
			c0.4,0.3,0.7,0.7,0.9,1.1c0.2,0.5,0.3,1.2,0.3,2.2v3.8h-0.9v-3.5c0-0.8,0-1.4-0.1-1.7c-0.1-0.5-0.3-0.9-0.6-1.1s-0.7-0.4-1.2-0.4
			c-0.6,0-1.1,0.2-1.5,0.6c-0.5,0.4-0.7,0.8-0.9,1.4c-0.1,0.4-0.1,1-0.1,2v2.7h-0.9V876.9z"/>
		<path class="st0" d="M65.2,876.9h0.9v3.4c0,0.8,0,1.4,0.1,1.7c0.1,0.4,0.4,0.8,0.8,1.1c0.4,0.3,0.8,0.4,1.4,0.4
			c0.5,0,1-0.1,1.3-0.4s0.6-0.6,0.8-1c0.1-0.3,0.1-0.9,0.1-1.8v-3.4h1v3.6c0,1-0.1,1.8-0.4,2.3c-0.2,0.5-0.6,0.9-1.1,1.2
			c-0.5,0.3-1.1,0.4-1.8,0.4s-1.3-0.1-1.8-0.4c-0.5-0.3-0.8-0.7-1.1-1.2c-0.2-0.5-0.4-1.3-0.4-2.3V876.9z"/>
	</g>
</g>
<g>
</g>
<g>
</g>
<g>
</g>
<g>
</g>
<g>
</g>
</svg>
