<?xml version="1.0" encoding="utf-8"?>
<!-- Generator: Adobe Illustrator 24.2.0, SVG Export Plug-In . SVG Version: 6.00 Build 0)  -->
<svg version="1.1" id="Layer_1" xmlns="http://www.w3.org/2000/svg" xmlns:xlink="http://www.w3.org/1999/xlink" x="0px" y="0px"
	 viewBox="0 0 36 35.5" style="enable-background:new 0 0 36 35.5;" xml:space="preserve">
<style type="text/css">
	.st0{fill:#FFFFFB;}
</style>
<g id="Menu_-_Icon" transform="translate(0 -5)">
	<path id="Line_-_Bottom" class="st0" d="M3,33.6h29.6c1.6,0,3,1.3,3,3v1c0,1.6-1.3,3-3,3H3c-1.6,0-3-1.3-3-3v-1
		C0,34.9,1.3,33.6,3,33.6z"/>
	<path id="Line_-_Middle" class="st0" d="M3,19.8h29.6c1.6,0,3,1.3,3,3v1c0,1.6-1.3,3-3,3H3c-1.6,0-3-1.3-3-3v-1
		C0,21.1,1.3,19.8,3,19.8z"/>
	<path id="Line_-_Top" class="st0" d="M3,5h29.6c1.6,0,3,1.3,3,3v1c0,1.6-1.3,3-3,3H3c-1.6,0-3-1.3-3-3v-1C0,6.3,1.3,5,3,5z"/>
</g>
<g>
</g>
<g>
</g>
<g>
</g>
<g>
</g>
<g>
</g>
</svg>
