<?xml version="1.0" encoding="utf-8"?>
<!-- Generator: Adobe Illustrator 24.2.0, SVG Export Plug-In . SVG Version: 6.00 Build 0)  -->
<svg version="1.1" id="Layer_1" xmlns="http://www.w3.org/2000/svg" xmlns:xlink="http://www.w3.org/1999/xlink" x="0px" y="0px"
	 viewBox="0 0 37 37" style="enable-background:new 0 0 37 37;" xml:space="preserve">
<style type="text/css">
	.st0{fill:#FFFFFB;}
</style>
<g id="Option_-_Menu" transform="translate(-33.797 -829.297)">
	<g id="Menu_-_Icon" transform="translate(0 -5)">
		<path id="Line_-_Bottom" class="st0" d="M34.8,865.4l30-29.9c1.2-1.2,3.1-1.2,4.2-0.1l0.7,0.7c1.2,1.2,1.2,3.1,0.1,4.2l-30,29.9
			c-1.2,1.2-3.1,1.2-4.2,0.1l-0.7-0.7C33.7,868.5,33.7,866.6,34.8,865.4z"/>
		<path id="Line_-_Top" class="st0" d="M39.8,835.5l29.7,29.7c1.2,1.2,1.2,3.1,0,4.2l-0.7,0.7c-1.2,1.2-3.1,1.2-4.2,0l-29.7-29.7
			c-1.2-1.2-1.2-3.1,0-4.2l0.7-0.7C36.8,834.3,38.7,834.3,39.8,835.5z"/>
	</g>
</g>
</svg>
