<?xml version="1.0" encoding="utf-8"?>
<!-- Generator: Adobe Illustrator 24.2.1, SVG Export Plug-In . SVG Version: 6.00 Build 0)  -->
<svg version="1.1" id="Layer_1" xmlns="http://www.w3.org/2000/svg" xmlns:xlink="http://www.w3.org/1999/xlink" x="0px" y="0px"
	 viewBox="0 0 36 54" style="enable-background:new 0 0 36 54;" xml:space="preserve">
<style type="text/css">
	.st0{fill:#444CA0;}
</style>
<g id="Option_-_Menu" transform="translate(-36 -831)">
	<g id="Menu_-_Icon" transform="translate(0 -5)">
		<path id="Line_-_Top" class="st0" d="M42.6,837.3l27.9,27.4c1.5,1.5,1.9,3.7,0.7,4.9l-0.7,0.7c-1.1,1.2-3.3,0.9-4.9-0.6
			l-27.9-27.4c-1.5-1.5-1.9-3.7-0.7-4.9l0.7-0.7C38.9,835.5,41.1,835.8,42.6,837.3z"/>
	</g>
</g>
<g id="Option_-_Menu_1_" transform="translate(-36 -831)">
	<g id="Menu_-_Icon_1_" transform="translate(0 -5)">
		<path id="Line_-_Top_1_" class="st0" d="M37.6,864.7l27.9-27.4c1.5-1.5,3.7-1.8,4.9-0.6l0.7,0.7c1.1,1.2,0.8,3.3-0.7,4.9
			l-27.9,27.3c-1.5,1.5-3.7,1.8-4.9,0.6l-0.7-0.7C35.8,868.4,36.1,866.2,37.6,864.7z"/>
	</g>
</g>
</svg>
