<?xml version="1.0" encoding="utf-8"?>
<!-- Generator: Adobe Illustrator 24.2.0, SVG Export Plug-In . SVG Version: 6.00 Build 0)  -->
<svg version="1.1" id="Слой_1" xmlns="http://www.w3.org/2000/svg" xmlns:xlink="http://www.w3.org/1999/xlink" x="0px" y="0px"
	 viewBox="0 0 37 27" style="enable-background:new 0 0 37 27;" xml:space="preserve">
<style type="text/css">
	.st0{fill:#FFFFFB;}
</style>
<path class="st0" d="M34.4,0H3.7C2.2,0,1,1.3,1,2.8v21.4C1,25.8,2.2,27,3.7,27h30.7c1.5,0,2.7-1.3,2.7-2.8V2.8C37,1.3,35.8,0,34.4,0
	z M23,13.5L34.8,5v17L23,13.5z M34.4,2.3c0.1,0,0.2,0,0.2,0.1L19,13.6L3.4,2.4c0.1-0.1,0.2-0.1,0.2-0.1S34.4,2.3,34.4,2.3z M3.3,22
	V5L15,13.5L3.3,22z M3.7,24.8c-0.1,0-0.2,0-0.2-0.1L17,15l1.4,1c0,0,0.1,0,0.1,0.1c0,0,0.1,0,0.1,0.1c0.1,0.1,0.3,0.1,0.4,0.1l0,0
	l0,0c0.2,0,0.3,0,0.4-0.1c0,0,0.1,0,0.1-0.1c0,0,0.1,0,0.1-0.1l1.4-1l13.5,9.7c-0.1,0.1-0.2,0.1-0.2,0.1S3.7,24.8,3.7,24.8z"/>
</svg>
